<svg version="1.2" xmlns="http://www.w3.org/2000/svg" viewBox="0 0 24 24" width="24" height="24">
	<style>
		.s0 { fill: #6495ed } 
	</style>
	<path class="s0" d="m19.3 4.6c0 1.6-0.4 3.1-1 4.4-0.1 0.2-0.2 0.3-0.3 0.6 0 0.1-0.2 0.6-0.3 0.6 0-0.1 0.3-1 0.3-1.1 0.1-0.4 0.2-0.8 0.3-1.2 0.3-1.4 0.6-3.5 0-4.9-0.1-0.3-0.3-0.4-0.5-0.7-0.9-0.7-2.3 0-3.2 0.5-0.3 0.2-0.6 0.4-0.8 0.6l-0.4 0.3c-0.1 0.1-0.2 0.1-0.2 0.2l-0.7 0.6c0 0-0.1 0-0.1 0.1-0.1 0.1-0.1 0.1-0.2 0.2-0.1 0.1-0.7 0.7-0.9 0.9l-1.4 1.8c-0.1 0.1-0.2 0.3-0.3 0.4-0.2 0.2-0.5 0.6-0.6 0.8 0 0.1-0.1 0.1-0.1 0.1-0.2 0.2 0 0.1-0.2 0.3l-0.3 0.5c-0.6 0.9-1.1 1.8-1.6 2.7-0.2 0.4-0.5 1.1-0.7 1.4 0 0.1-0.2 0.4-0.2 0.5 0-0.1 0.1-0.6 0.2-0.7 0.2-0.8 0.4-1.2 0.7-2 0.4-0.9 0.8-1.7 1.2-2.5 0.1 0 0.1-0.1 0.1-0.1 0-0.1 0.1-0.1 0.1-0.1 0-0.1 0-0.2 0.1-0.3 0.1-0.1 0.1-0.2 0.2-0.3 0.6-0.9 1.2-1.8 1.9-2.6l0.3-0.3c0.1-0.2 0.4-0.5 0.5-0.6 0.1-0.1 0.1-0.1 0.1-0.1 0.3-0.3 0.5-0.5 0.8-0.8 0.1 0 0.1-0.1 0.1-0.1l0.5-0.5c0.1 0 0.2-0.1 0.3-0.2 0.7-0.5 1.4-1.1 2.3-1.4 0.5-0.2 1-0.3 1.6-0.3 0.2 0 0.3 0.1 0.5 0.1l0.4 0.2 0.3 0.2c0 0 0 0.1 0.1 0.1 0.1 0.1 0.1 0.1 0.2 0.2l0.1 0.2c0.1 0 0.1 0.1 0.1 0.1 0.1 0.1 0.1 0.1 0.1 0.2 0.1 0.1 0 0 0.1 0.1 0.1 0.1 0.1 0.1 0.1 0.3 0.2 0.5 0.3 1.1 0.3 1.6z"/>
	<path class="s0" d="m12.8 16.3h1.1c0.5 0 1.1 0 1.6-0.1 0.4 0 0.7-0.1 1.1-0.1 0.2 0 0.3 0 0.5 0-0.1 0-0.3 0.1-0.4 0.1-0.1 0-0.2 0.1-0.3 0.1-0.7 0.2-1.5 0.3-2.2 0.4-1.2 0.2-3.6 0.3-4.9 0.1-0.5 0-1.1-0.1-1.6-0.1-1.1-0.2-1.7-0.3-2.8-0.6-1.2-0.3-2.3-0.8-3.3-1.5l-0.5-0.4c-0.1-0.1-0.2-0.1-0.2-0.2 0 0-0.1-0.1-0.1-0.1l-0.2-0.2c0 0-0.1-0.1-0.1-0.1-0.6-0.9-0.7-2 0-2.9 0.1-0.1 0.1-0.2 0.2-0.2 0.2-0.2 0.4-0.4 0.7-0.6 0.1-0.1 0.2-0.1 0.2-0.2 1.2-0.8 3-1.3 4.5-1.5 0.2-0.1 0.5-0.1 0.7-0.1 0.2 0 0.6-0.1 0.8-0.1l-1.3 0.4c-1.3 0.3-2.6 0.8-3.7 1.4-0.3 0.2-0.7 0.5-1 0.7-0.1 0.1-0.2 0.2-0.3 0.3 0 0-0.1 0.1-0.1 0.1-0.7 0.9-0.7 1.6 0 2.4 0.1 0.1 0.1 0.1 0.2 0.2l0.3 0.2c0.2 0.2 0.8 0.5 1 0.7 0.4 0.2 0.8 0.4 1.2 0.5 1.5 0.6 4 1.1 5.6 1.3 0.5 0 1 0.1 1.6 0.1 0.5 0 1.1 0.1 1.6 0.1z"/>
	<path class="s0" d="m19.3 17.8v0.5c0.2 1.4-0.1 3.3-1.3 4.1-0.3 0.2-0.8 0.3-1.2 0.3-1 0-1.7-0.5-2.4-1-0.1 0-0.2-0.1-0.2-0.1-0.5-0.4-0.6-0.5-1-0.9-0.1-0.1-0.1-0.1-0.2-0.2 0 0 0.7 0.5 0.8 0.5 0.7 0.5 1.7 1 2.6 1.1 1.7 0.2 2.2-1.2 2.2-2.8 0-1.4-0.4-2.9-0.7-4.1-0.5-1.6-1.3-3.6-2.2-5.1-0.4-0.7-0.9-1.6-1.3-2.3-0.2-0.4-0.4-0.7-0.7-1.1-0.1-0.1-0.2-0.2-0.2-0.4-0.1-0.1-0.5-0.6-0.5-0.7 0 0 0.4 0.4 0.4 0.4l0.4 0.5c0.3 0.3 0.8 0.9 1.1 1.3l0.5 0.7c0.1 0.1 0.2 0.2 0.2 0.3 0.2 0.2 0.5 0.7 0.5 0.7 0.1 0.1 0.1 0.2 0.2 0.4 0.4 0.6 0.7 1.1 1.1 1.9 0.3 0.6 0.5 1 0.7 1.6 0.3 0.7 0.7 1.9 0.9 2.6 0.1 0.5 0.3 1.2 0.3 1.7 0 0.1 0.1 0.2 0.1 0.3z"/>
	<path class="s0" d="m13.5 17.9c0 0.1-0.7 1-0.9 1.3l-0.5 0.7c-0.2 0.3-0.8 0.9-1.1 1.1-0.1 0.1-0.3 0.3-0.5 0.4-0.2 0.1-0.3 0.3-0.5 0.4-0.5 0.3-1 0.6-1.7 0.9-1.6 0.5-2.8-0.1-3.3-1.3-0.4-1-0.3-2.2-0.1-3.2 0-0.2 0.1-0.3 0.1-0.5 0-0.1 0.1-0.4 0.2-0.5 0 0 0 0.9 0 1 0 0.3 0 0.7 0 1 0.1 1.1 0.4 2.5 1.6 2.8 1.2 0.2 2.9-0.9 3.8-1.6 0.3-0.2 1.4-1.1 1.6-1.3 0.1 0 0.1 0 0.1-0.1l0.6-0.6c0.1 0 0.1-0.1 0.1-0.1l0.2-0.1c0 0 0.2-0.3 0.3-0.3z"/>
	<path class="s0" d="m19.8 15.4c0 0 1-0.6 1-0.6 0.9-0.5 2.4-1.6 2.4-2.7 0-0.7-0.4-1.1-0.7-1.5-0.1-0.1-0.3-0.3-0.4-0.4-0.1-0.1-0.2-0.1-0.3-0.2-0.3-0.2-1.1-0.8-1.5-1-0.1-0.1-0.5-0.3-0.5-0.3 0.2-0.1 1.3 0.3 1.5 0.4 0.2 0.1 0.5 0.2 0.7 0.3 1 0.5 2.1 1.4 2.1 2.7 0 0.7-0.3 1.2-0.7 1.7-0.2 0.2-0.6 0.5-0.8 0.6-0.4 0.2-0.8 0.5-1.3 0.7-0.3 0.1-1.1 0.3-1.5 0.3z"/>
	<path class="s0" d="m11 3.7l-1-0.6c-0.3-0.2-0.6-0.3-1-0.5-0.6-0.3-1.7-0.6-2.5-0.3-0.7 0.3-1 1.1-1.1 1.9-0.2 0.9-0.2 1.9-0.2 2.8 0 0 0 0 0-0.1 0 0 0-0.1 0-0.1-0.5-1.3-0.7-3.2 0-4.4 0.1-0.2 0.3-0.4 0.4-0.5 0.2-0.2 0.3-0.2 0.6-0.4 0.9-0.4 2.1-0.1 2.9 0.4 0.3 0.2 0.4 0.3 0.7 0.5 0 0 0.1 0 0.1 0.1l0.4 0.3c0 0.1 0.1 0.1 0.1 0.1 0.1 0.1 0.6 0.6 0.6 0.8z"/>
	<path class="s0" d="m10.2 12.9l0.4 0.8-0.3 0.6c-0.1 0-0.1 0.1-0.1 0.1-0.4 0.6-1.2 0.8-1.8 0.4-0.1 0-0.2-0.1-0.2-0.1-0.2-0.1-0.3-0.3-0.3-0.3-0.2-0.4-0.3-0.9-0.1-1.4l0.7-1.1c0.2-0.3 0.4-0.5 0.7-0.7 0.6-0.2 1.3 0 1.6 0.5l0.7-1.2-0.2-0.3c-0.3-0.5-0.8-0.5-1.1 0l-0.3 0.6c-0.2 0-0.5 0-0.5 0-0.2 0-0.4 0.1-0.4 0.1l0.6-1.1c0.5-0.9 1.8-1 2.4-0.1 0.6-0.9 1.8-0.8 2.3 0.1l0.6 1.1c-0.2-0.1-0.4-0.1-0.5-0.1-0.2 0-0.5 0-0.5 0l-0.3-0.6c-0.3-0.5-0.8-0.5-1 0l-0.2 0.3 0.7 1.2c0.3-0.5 1.1-0.7 1.7-0.5 0.3 0.1 0.5 0.3 0.7 0.7l0.7 1.1c0.2 0.5 0.2 1-0.1 1.4 0 0-0.1 0.2-0.3 0.3-0.1 0.1-0.2 0.1-0.2 0.1-0.6 0.4-1.4 0.2-1.8-0.4l-0.1-0.1-0.4-0.6 0.5-0.8 0.1 0.2 0.5 0.8c0.1 0.1 0.1 0.2 0.3 0.3 0.1 0.1 0.2 0.1 0.4 0.1 0.1 0 0.1 0 0.1-0.1 0 0 0.1 0 0.1 0 0.2-0.1 0.3-0.3 0.3-0.5 0-0.2-0.1-0.5-0.1-0.5l-0.5-0.8c-0.1-0.2-0.2-0.4-0.5-0.5-0.3 0-0.5 0.1-0.7 0.4l-0.1 0.3-0.5 0.7-0.5 1-0.1 0.1c-0.1 0.2-0.3 0.4-0.6 0.5-0.2-0.1-0.4-0.3-0.5-0.5l-0.1-0.1-0.6-1-0.4-0.7-0.2-0.3c-0.2-0.3-0.4-0.4-0.7-0.4-0.3 0.1-0.4 0.3-0.5 0.5l-0.5 0.8c0 0-0.1 0.3-0.1 0.5 0 0.2 0.1 0.4 0.3 0.5l0.1 0c0 0.1 0.1 0.1 0.1 0.1 0.2 0 0.3 0 0.4-0.1 0.1-0.1 0.2-0.2 0.3-0.3l0.4-0.8z"/>
</svg> 